<?xml version="1.0" encoding="UTF-8" standalone="no"?>
<!DOCTYPE svg PUBLIC "-//W3C//DTD SVG 1.1//EN" "http://www.w3.org/Graphics/SVG/1.1/DTD/svg11.dtd">
<svg width="100%" height="100%" viewBox="0 0 4961 4961" version="1.1" xmlns="http://www.w3.org/2000/svg" xmlns:xlink="http://www.w3.org/1999/xlink" xml:space="preserve" xmlns:serif="http://www.serif.com/" style="fill-rule:evenodd;clip-rule:evenodd;stroke-linejoin:round;stroke-miterlimit:2;">
    <g transform="matrix(1.298382,0,0,1.298382,-289.49474,-471.116593)">
        <path d="M1106.891,1799.239C1095.194,1835.472 1061.17,1861.712 1021.066,1861.712C971.303,1861.712 930.902,1821.311 930.902,1771.548C930.902,1721.785 971.303,1681.384 1021.066,1681.384C1064.539,1681.384 1100.867,1712.217 1109.356,1753.188L1195.76,1753.824L1304.046,1863.423C1311.265,1836.515 1353.267,1766.293 1353.267,1766.293L1275.826,1682.289L1277.729,1459.574C1237.792,1450.309 1207.991,1414.476 1207.991,1371.737C1207.991,1321.974 1248.392,1281.573 1298.155,1281.573C1347.918,1281.573 1388.319,1321.974 1388.319,1371.737C1388.319,1412.84 1360.756,1447.556 1323.121,1458.394L1324.391,1667.851L1382.8,1727.572C1391.331,1710.509 1437.927,1650.131 1437.927,1650.131L1438.583,1512.312L1596.747,1356.774L1597.955,1172.009C1559.301,1161.841 1530.759,1126.628 1530.759,1084.801C1530.759,1035.039 1571.16,994.637 1620.923,994.637C1670.686,994.637 1711.087,1035.039 1711.087,1084.801C1711.087,1127.243 1681.699,1162.875 1642.18,1172.441L1643.999,1380.4L1483.867,1531.345L1483.867,1598.285C1537.682,1522.157 1684.032,1420.433 1684.032,1420.433C1684.032,1420.433 1869.76,1284.583 2112.584,1240.612C2355.407,1196.641 2460.193,1232.956 2566.073,1247.831C2631.908,1257.081 2759.676,1333.148 2759.676,1333.148C2759.676,1333.148 2543.76,1255.707 2316.687,1268.176C2089.614,1280.645 1938.013,1359.399 1869.76,1388.275C1801.507,1417.152 1625.623,1532.001 1502.243,1682.945C1378.862,1833.89 1336.86,1971.709 1301.421,2062.276C1265.982,2152.842 1253.512,2288.036 1256.137,2450.794C1258.763,2613.551 1341.878,2810.25 1341.878,2810.25C1658.738,2742.571 2108.291,2796.509 2108.291,2796.509C1718.624,2888.799 1433.21,3098.144 1433.21,3098.144C1433.21,3098.144 1438.282,3117.146 1334.235,2959.221C1228.967,2799.443 1202.322,2644.055 1202.322,2644.055C1202.322,2644.055 1160.32,2466.859 1178.04,2263.097C1195.76,2059.335 1275.17,1908.706 1275.17,1908.706L1176.071,1801.076L1106.891,1799.239ZM1298.155,1326.655C1273.273,1326.655 1253.073,1346.856 1253.073,1371.737C1253.073,1396.619 1273.273,1416.819 1298.155,1416.819C1323.036,1416.819 1343.237,1396.619 1343.237,1371.737C1343.237,1346.856 1323.036,1326.655 1298.155,1326.655ZM1021.066,1726.466C996.185,1726.466 975.984,1746.666 975.984,1771.548C975.984,1796.429 996.185,1816.63 1021.066,1816.63C1045.948,1816.63 1066.148,1796.429 1066.148,1771.548C1066.148,1746.666 1045.948,1726.466 1021.066,1726.466ZM1620.923,1039.719C1596.042,1039.719 1575.841,1059.92 1575.841,1084.801C1575.841,1109.683 1596.042,1129.883 1620.923,1129.883C1645.805,1129.883 1666.005,1109.683 1666.005,1084.801C1666.005,1059.92 1645.805,1039.719 1620.923,1039.719ZM2500.801,3535.198C2500.801,3535.198 2546.946,3434.706 2787.924,3203.982C3028.901,2973.259 3291.413,2910.707 3291.413,2910.707C3291.413,2910.707 3222.722,3119.197 2999.164,3313.704C2768.846,3514.091 2498.003,3546.393 2500.801,3535.198ZM1960.396,3488.987C1960.396,3488.987 2101.906,3310.561 2180.865,3252.111C2259.824,3193.661 2353.138,3072.66 2699.736,2937.302C3046.334,2801.945 3317.049,2819.377 3317.049,2819.377C3317.049,2819.377 3078.159,2910.573 2978.655,2963.964C2929.806,2990.174 2837.089,3039.636 2751.473,3098.859C2659.841,3162.244 2575.149,3236.366 2523.361,3291.078C2445.65,3373.177 2365.444,3450.979 2304.943,3550.513C2304.943,3550.513 2239.131,3557.761 2121.39,3536.224C2027.311,3519.015 1960.396,3488.987 1960.396,3488.987ZM1531.673,3212.862C1531.673,3212.862 1627.952,3131.285 1679.52,3095.079C1732.862,3057.627 1794.245,3020.145 1855.508,2989.832C1928.591,2953.67 2027.692,2905.332 2118.02,2875.586C2222.395,2841.215 2359.145,2800.676 2482.596,2779.402C2618.682,2755.951 2790.82,2744.891 2923.616,2740.76C3038.554,2737.186 3119.994,2744.958 3190.328,2750.001C3323.065,2759.518 3335.655,2780.662 3335.655,2780.662C3335.655,2780.662 3187.572,2785.902 3104.224,2787.382C2993.899,2789.343 2830.687,2819.514 2705.626,2852.485C2577.381,2886.297 2428.904,2944.26 2320.049,2996.132C2225.049,3041.402 2132.316,3096.197 2049.557,3161.199C2004.83,3196.329 1934.201,3256.521 1879.888,3311.164C1826.837,3364.538 1789.565,3412.791 1789.565,3412.791L1637.938,3316.186L1531.673,3212.862ZM2240.408,2770.401L2182.882,2784.379C2182.882,2784.379 2170.117,2649.784 2154.892,2616.707C2139.666,2583.631 2109.215,2476.001 2047.787,2394.097C1986.359,2312.194 1898.2,2242.802 1887.56,2237.762C1876.919,2232.722 1792.355,2184 1774.434,2178.4C1774.434,2178.4 1861.238,2236.642 1892.04,2271.364C1922.841,2306.085 2011.325,2362.58 2075.168,2526.735C2075.168,2526.735 2101.489,2617.526 2103.729,2620.886C2103.729,2620.886 2037.724,2586.667 2006.285,2580.845C1945.45,2569.578 1832.472,2532.427 1767.714,2474.16C1736.493,2446.067 1692.966,2394.329 1662.272,2341.433C1627.648,2281.764 1607.637,2222.149 1607.637,2222.149C1607.637,2222.149 1591.537,2153.753 1589.576,2117.704C1587.149,2073.089 1588.876,1951.657 1588.876,1951.657C1588.876,1951.657 1678.111,1995.76 1726.362,2005.419C1873.929,2034.96 1954.358,2091.838 2033.256,2158.306C2114.167,2226.47 2154.988,2375.284 2168.782,2438.318C2173.504,2459.899 2168.729,2482.905 2173.822,2504.401C2180.169,2531.189 2206.863,2599.045 2206.863,2599.045L2231.504,2505.521L2233.185,2417.597C2233.185,2417.597 2249.985,2234.175 2299.267,2127.078C2348.55,2019.98 2404.459,1936.143 2475.115,1868.61C2544.57,1802.226 2642.096,1758.566 2723.206,1721.884C2799.013,1687.601 2895.227,1673.908 2961.777,1648.521C3017.549,1627.245 3122.504,1569.557 3122.504,1569.557C3122.504,1569.557 3140.676,1706.445 3130.904,1773.919C3117.09,1869.302 3083.464,2023.341 3039.62,2141.855C2975.157,2316.105 2786.873,2453.418 2686.805,2490.02C2609.713,2518.217 2461.115,2560.023 2461.115,2560.023C2461.115,2560.023 2350.65,2597.125 2315.928,2625.126C2315.928,2625.126 2344.354,2501.738 2369.271,2446.338C2399.496,2379.135 2449.302,2289.43 2500.78,2218.408C2556.413,2141.652 2674.277,2052.081 2729.367,2017.359C2753.065,2002.422 2801.61,1974.422 2801.61,1974.422C2801.61,1974.422 2723.441,2000.769 2688.485,2022.024C2639.669,2051.705 2559.054,2098.207 2508.717,2152.51C2450.661,2215.139 2383.816,2308.718 2340.149,2397.8C2295.907,2488.058 2243.265,2694.054 2243.265,2694.054L2240.408,2770.401Z" style="fill:url(#_Linear1);"/>
    </g>
    <defs>
        <linearGradient id="_Linear1" x1="0" y1="0" x2="1" y2="0" gradientUnits="userSpaceOnUse" gradientTransform="matrix(1863.285204,2044.926726,-2044.926726,1863.285204,1236.651273,1294.049876)"><stop offset="0" style="stop-color:rgb(22,163,74);stop-opacity:1"/><stop offset="0.55" style="stop-color:rgb(34,197,94);stop-opacity:1"/><stop offset="1" style="stop-color:rgb(132,204,22);stop-opacity:1"/></linearGradient>
    </defs>
</svg>
